HIERARCHY
ROOT Pelvis
{
	OFFSET -0.217368 -24.078917 2.858379
	CHANNELS 6 Xposition Yposition Zposition Zrotation Yrotation Xrotation 
	JOINT Left_hip
	{
		OFFSET 5.858135 -8.228005 -1.766408
		CHANNELS 3 Zrotation Yrotation Xrotation
		JOINT Left_knee
		{
			OFFSET 4.345143 -38.646942 0.803700
			CHANNELS 3 Zrotation Yrotation Xrotation
			JOINT Left_ankle
			{
				OFFSET -1.479033 -42.687447 -3.742800
				CHANNELS 3 Zrotation Yrotation Xrotation
				JOINT Left_foot
				{
					OFFSET 4.105436 -6.028605 12.204244
					CHANNELS 3 Zrotation Yrotation Xrotation
					End Site
					{
						OFFSET 0.000000 0.000000 0.000000
					}
				}
			}
		}
	}
	JOINT Right_hip
	{
		OFFSET -6.030973 -9.051328 -1.354253
		CHANNELS 3 Zrotation Yrotation Xrotation
		JOINT Right_knee
		{
			OFFSET -4.325663 -38.368790 -0.484304
			CHANNELS 3 Zrotation Yrotation Xrotation
			JOINT Right_ankle
			{
				OFFSET 1.905555 -42.004566 -3.456167
				CHANNELS 3 Zrotation Yrotation Xrotation
				JOINT Right_foot
				{
					OFFSET -3.483987 -6.210554 13.032330
					CHANNELS 3 Zrotation Yrotation Xrotation
					End Site
					{
						OFFSET 0.000000 0.000000 0.000000
					}
				}
			}
		}
	}
	JOINT Spine1
	{
		OFFSET 0.443945 12.440353 -3.838522
		CHANNELS 3 Zrotation Yrotation Xrotation
		JOINT Spine2
		{
			OFFSET 0.448844 13.795640 2.682033
			CHANNELS 3 Zrotation Yrotation Xrotation
			JOINT Spine3
			{
				OFFSET -0.226460 5.603239 0.285504
				CHANNELS 3 Zrotation Yrotation Xrotation
				JOINT Neck
				{
					OFFSET -1.339018 21.163553 -3.346758
					CHANNELS 3 Zrotation Yrotation Xrotation
					JOINT Head
					{
						OFFSET 1.011321 8.893734 5.040987
						CHANNELS 3 Zrotation Yrotation Xrotation
						End Site
						{
							OFFSET 0.000000 0.000000 0.000000
						}
					}
				}
				JOINT Left_collar
				{
					OFFSET 7.170247 11.399971 -1.889817
					CHANNELS 3 Zrotation Yrotation Xrotation
					JOINT Left_shoulder
					{
						OFFSET 12.292140 4.520507 -1.904600
						CHANNELS 3 Zrotation Yrotation Xrotation
						JOINT Left_elbow
						{
							OFFSET 25.533188 -1.564902 -2.294648
							CHANNELS 3 Zrotation Yrotation Xrotation
							JOINT Left_wrist
							{
								OFFSET 26.570929 1.269810 -0.737473
								CHANNELS 3 Zrotation Yrotation Xrotation
								JOINT Left_palm
								{
									OFFSET 8.669054 -1.063602 -1.559429
									CHANNELS 3 Zrotation Yrotation Xrotation
									End Site
									{
										OFFSET 0.000000 0.000000 0.000000
									}
								}
							}
						}
					}
				}
				JOINT Right_collar
				{
					OFFSET -8.295364 11.247234 -2.370738
					CHANNELS 3 Zrotation Yrotation Xrotation
					JOINT Right_shoulder
					{
						OFFSET -11.322830 4.685326 -0.847207
						CHANNELS 3 Zrotation Yrotation Xrotation
						JOINT Right_elbow
						{
							OFFSET -26.012751 -1.436928 -3.126872
							CHANNELS 3 Zrotation Yrotation Xrotation
							JOINT Right_wrist
							{
								OFFSET -26.910841 0.679372 -0.602677
								CHANNELS 3 Zrotation Yrotation Xrotation
								JOINT Right_palm
								{
									OFFSET -8.875370 -0.865157 -1.010708
									CHANNELS 3 Zrotation Yrotation Xrotation
									End Site
									{
										OFFSET 0.000000 0.000000 0.000000
									}
								}
							}
						}
					}
				}
			}
		}
	}
}
MOTION
Frames: 15
Frame Time: 0.016667
-0.217368 72.520248 2.858379 -0.628440 1.603897 2.747200 2.075711 -0.189647 -2.252150 0.063533 0.037679 -1.287214 -1.912100 1.610201 12.319651 0.000000 0.000000 0.000000 -0.609022 0.400313 -4.077751 -1.137837 0.085229 -0.717129 2.981346 0.646386 12.276504 0.000000 0.000000 0.000000 2.567628 -0.035724 0.234530 -0.681323 0.448657 -5.917512 -2.798979 1.705844 4.398389 4.457153 -3.253665 -1.946239 0.000000 0.000000 0.000000 -17.794629 -6.122808 1.336086 -51.485099 -3.600835 -4.206034 -9.971005 -15.036453 1.824071 0.000000 0.000000 0.000000 0.000000 0.000000 0.000000 20.615471 3.131296 -0.365843 54.108782 2.665575 -3.623633 7.374046 16.667064 1.439910 0.000000 0.000000 0.000000 0.000000 0.000000 0.000000 
-0.235225 72.477707 2.840020 -0.345977 1.652900 2.850250 1.528303 -0.189669 -2.197637 0.022635 0.066416 -2.008298 -2.025697 1.579737 12.732343 0.000000 0.000000 0.000000 -0.770774 0.364851 -3.719513 -1.282082 0.094823 -0.811792 2.954287 0.751593 11.931042 0.000000 0.000000 0.000000 2.276461 -0.025309 0.111722 -0.247192 0.266410 -5.884998 -2.879252 1.721537 4.225430 4.440867 -3.119002 -2.826524 0.000000 0.000000 0.000000 -18.533239 -6.370940 1.435756 -51.756736 -3.755010 -4.164642 -9.520885 -14.480664 1.698217 0.000000 0.000000 0.000000 0.000000 0.000000 0.000000 21.018090 3.557599 -0.156672 54.196520 3.035999 -3.465027 6.736407 17.743358 1.458775 0.000000 0.000000 0.000000 0.000000 0.000000 0.000000 
-0.214083 72.285522 2.831525 -0.193884 1.898419 2.833805 1.405313 -0.250207 -2.951957 -0.286292 0.068640 -1.177289 -1.708005 1.910284 12.219616 0.000000 0.000000 0.000000 -0.923465 0.343338 -3.501285 -1.144983 0.112130 -0.190669 2.176293 -0.506978 11.314730 0.000000 0.000000 0.000000 2.000693 -0.029175 0.221423 -0.149033 0.237717 -6.370083 -2.448150 1.614840 5.802821 3.647245 -2.354285 -4.143817 0.000000 0.000000 0.000000 -19.729503 -6.583823 1.502291 -51.216149 -4.384991 -3.854754 -8.850619 -15.926317 1.782795 0.000000 0.000000 0.000000 0.000000 0.000000 0.000000 21.668528 3.944592 0.017633 53.723403 2.404395 -3.710516 6.891510 20.390317 1.729027 0.000000 0.000000 0.000000 0.000000 0.000000 0.000000 
-0.209491 72.290733 2.820570 -0.188961 2.897881 3.159156 1.287925 -0.300559 -3.560082 -0.476716 0.088557 -1.210488 -1.919157 1.649115 12.452865 0.000000 0.000000 0.000000 -0.784115 0.358448 -3.652139 -1.287557 0.114731 -0.431987 2.372260 -0.083703 11.236011 0.000000 0.000000 0.000000 2.079551 -0.020335 0.057763 -0.087151 0.197653 -5.816097 -2.685402 0.897747 4.808521 3.579889 -2.188689 -5.085018 0.000000 0.000000 0.000000 -19.371456 -6.672681 1.564648 -50.720486 -3.226564 -4.293475 -10.532585 -17.739988 2.252249 0.000000 0.000000 0.000000 0.000000 0.000000 0.000000 21.165306 4.076443 0.125785 53.340505 1.289970 -4.167188 8.629590 22.336721 2.223022 0.000000 0.000000 0.000000 0.000000 0.000000 0.000000 
-0.196876 72.282410 2.777368 -0.170563 2.887246 3.365712 1.272665 -0.347327 -4.139167 -0.652440 0.088546 -0.596119 -1.719600 1.898770 12.240129 0.000000 0.000000 0.000000 -0.866822 0.418712 -4.312140 -1.197620 0.145957 0.372876 2.180457 -0.343483 10.960089 0.000000 0.000000 0.000000 1.978357 -0.017930 0.031402 -0.224836 0.263079 -6.128322 -2.487740 0.945829 5.440449 3.276038 -1.911795 -5.569102 0.000000 0.000000 0.000000 -19.150163 -6.593871 1.530538 -50.127992 -3.402541 -4.168207 -12.016344 -20.477457 2.880762 0.000000 0.000000 0.000000 0.000000 0.000000 0.000000 20.898388 3.975514 0.086475 52.348104 0.101322 -4.585993 11.087827 26.567325 3.233982 0.000000 0.000000 0.000000 0.000000 0.000000 0.000000 
-0.188789 72.255844 2.711115 -0.106721 3.313442 3.588285 1.152176 -0.435121 -5.182366 -0.710669 0.065982 0.431279 -1.593189 2.025875 12.019298 0.000000 0.000000 0.000000 -0.986008 0.484077 -5.046544 -0.981335 0.163380 1.222284 1.871845 -0.868644 10.749709 0.000000 0.000000 0.000000 1.879537 -0.035859 0.359831 -0.373176 0.326528 -6.204380 -2.365766 0.320480 4.934883 2.822780 -1.438031 -6.914783 0.000000 0.000000 0.000000 -19.265219 -5.880293 1.139894 -50.118390 -2.203317 -4.653663 -13.502146 -27.639883 4.311129 0.000000 0.000000 0.000000 0.000000 0.000000 0.000000 20.611313 3.162774 -0.347983 52.121212 -1.632673 -5.294021 12.753001 33.873318 4.730015 0.000000 0.000000 0.000000 0.000000 0.000000 0.000000 
-0.188117 72.245483 2.593787 -0.026193 3.764818 3.643945 0.779549 -0.511288 -5.934268 -0.276803 -0.016741 1.483482 -1.984979 1.429079 12.161989 0.000000 0.000000 0.000000 -1.206405 0.513706 -5.429882 -0.770104 0.157354 1.623646 1.613416 -1.422924 10.840320 0.000000 0.000000 0.000000 1.542207 -0.032679 0.371480 -0.272723 0.284020 -6.170708 -2.209216 -0.218799 5.188983 2.442845 -1.180195 -6.844643 0.000000 0.000000 0.000000 -19.268282 -5.430806 0.896878 -48.811369 -2.606601 -4.364266 -15.701748 -38.843261 6.992170 0.000000 0.000000 0.000000 0.000000 0.000000 0.000000 20.250315 2.559078 -0.654633 51.379068 -3.098124 -5.813002 15.452316 46.218346 7.881277 0.000000 0.000000 0.000000 0.000000 0.000000 0.000000 
-0.188191 72.270760 2.426922 0.045757 3.517020 3.672987 0.401732 -0.642217 -7.248691 0.271740 -0.137845 2.944125 -2.339887 0.807611 12.083571 0.000000 0.000000 0.000000 -1.239150 0.586414 -6.253951 -0.647611 0.204672 2.985392 1.546776 -1.601892 10.952329 0.000000 0.000000 0.000000 1.609513 -0.027268 0.258663 -0.496473 0.362974 -5.534611 -1.781987 -0.321008 4.961844 1.884333 -0.969885 -5.026327 0.000000 0.000000 0.000000 -18.130809 -5.161409 0.814111 -47.760310 -5.178452 -3.278746 -15.426083 -52.276229 9.619368 0.000000 0.000000 0.000000 0.000000 0.000000 0.000000 19.030304 1.986370 -0.863662 50.612013 -2.279247 -5.382147 20.579702 59.564051 13.636335 0.000000 0.000000 0.000000 0.000000 0.000000 0.000000 
-0.191450 72.244827 2.145375 0.005206 3.404831 3.614209 0.309844 -0.710420 -7.962019 0.352522 -0.185667 3.924729 -2.303481 0.507811 11.186031 0.000000 0.000000 0.000000 -1.049336 0.624449 -6.605917 -0.713081 0.240919 3.580854 1.274382 -1.949861 10.474874 0.000000 0.000000 0.000000 1.292075 -0.016096 0.107318 0.031096 0.136037 -5.376838 -1.842051 -0.461282 5.026489 1.921096 -1.102989 -3.972858 0.000000 0.000000 0.000000 -16.424827 -5.898398 1.281639 -47.505781 -11.562498 -0.799598 -11.119696 -66.255499 9.967717 0.000000 0.000000 0.000000 0.000000 0.000000 0.000000 17.745983 2.520462 -0.472178 50.251200 4.580061 -2.569338 23.325360 72.462929 19.627156 0.000000 0.000000 0.000000 0.000000 0.000000 0.000000 
-0.198129 72.290359 1.773740 -0.367835 3.026852 3.059150 0.628671 -0.708348 -8.152908 0.339749 -0.237960 5.365772 -1.818033 0.637145 9.451704 0.000000 0.000000 0.000000 -0.222965 0.671479 -6.790790 -1.078331 0.346601 4.694213 1.331170 -1.662861 10.054586 0.000000 0.000000 0.000000 1.703088 -0.042587 0.516740 0.107278 0.081942 -4.607445 -1.749551 0.068516 4.605562 2.013745 -1.474454 -1.086108 0.000000 0.000000 0.000000 -13.667928 -8.319106 2.569897 -45.914197 -21.978315 3.184750 27.142768 -75.399209 -17.812962 0.000000 0.000000 0.000000 0.000000 0.000000 0.000000 15.664254 4.304445 0.590291 48.266914 13.619939 1.068600 -22.484687 86.390183 -17.716140 0.000000 0.000000 0.000000 0.000000 0.000000 0.000000 
-0.207860 72.136810 1.266127 -0.637836 2.401474 2.391881 1.256272 -0.699455 -8.507429 -0.382929 -0.182386 7.229877 -1.036941 1.432096 7.985942 0.000000 0.000000 0.000000 0.397181 0.724124 -7.079512 -1.385203 0.470366 6.184908 1.074950 -1.762027 9.035047 0.000000 0.000000 0.000000 1.881219 -0.104983 1.569010 0.587143 -0.134260 -4.336123 -2.393070 0.624053 4.006655 2.644429 -1.993511 -0.833837 0.000000 0.000000 0.000000 -11.277707 -11.874573 4.246190 -43.796983 -32.994842 7.162637 72.162432 -68.715158 -49.347148 0.000000 0.000000 0.000000 0.000000 0.000000 0.000000 13.506836 7.421764 2.220314 45.791752 25.654418 5.548670 -105.662726 74.507322 -85.783018 0.000000 0.000000 0.000000 0.000000 0.000000 0.000000 
-0.210839 72.076416 0.613868 -1.202169 1.867673 2.566450 2.344557 -0.816896 -11.116685 -1.594993 -0.055911 11.343361 0.297787 3.083038 5.929328 0.000000 0.000000 0.000000 0.870979 0.938736 -8.895316 -0.816738 0.490463 8.527924 1.254751 -1.180400 8.548478 0.000000 0.000000 0.000000 3.331580 -0.225575 2.839776 0.374131 -0.044163 -4.257715 -3.438357 1.621227 2.874227 3.403759 -2.707422 0.111774 0.000000 0.000000 0.000000 -8.466814 -14.826594 5.472752 -41.346063 -43.911478 10.801678 87.661674 -59.300816 -53.602352 0.000000 0.000000 0.000000 0.000000 0.000000 0.000000 10.964878 9.147914 3.073179 43.149809 36.829504 9.312089 -106.561069 63.584704 -74.600394 0.000000 0.000000 0.000000 0.000000 0.000000 0.000000 
-0.237831 71.840210 -0.227485 -1.303355 1.153622 2.578660 3.029362 -0.887230 -13.090339 -2.200539 0.025086 14.416620 1.065279 4.102360 4.760450 0.000000 0.000000 0.000000 0.573891 1.201165 -11.536812 -0.357613 0.582376 12.515817 1.292794 -0.531759 7.275583 0.000000 0.000000 0.000000 3.638976 -0.351683 4.435525 0.181310 0.034967 -4.094170 -3.756956 2.188450 2.300013 3.734443 -2.935763 -0.147819 0.000000 0.000000 0.000000 -5.531639 -17.118855 6.259969 -37.080463 -52.980346 12.675462 91.218406 -49.930794 -47.369072 0.000000 0.000000 0.000000 0.000000 0.000000 0.000000 7.723110 11.825264 4.234590 38.536444 45.807522 11.165693 -105.076595 53.455102 -61.586397 0.000000 0.000000 0.000000 0.000000 0.000000 0.000000 
-0.269892 71.186371 -1.313829 -1.537820 0.668360 3.022509 3.874452 -1.088166 -18.031223 -3.526435 0.323065 20.544665 2.076159 5.742720 3.902021 0.000000 0.000000 0.000000 0.232513 1.564000 -15.320056 1.543879 0.309502 17.747475 0.318106 -1.855987 5.450118 0.000000 0.000000 0.000000 4.181774 -0.552384 6.693630 0.200592 0.047748 -4.814297 -4.406179 2.924349 1.978140 4.463790 -3.374782 -1.121511 0.000000 0.000000 0.000000 -3.535297 -18.261057 6.559275 -34.348500 -59.818331 13.941650 93.834839 -44.631823 -44.008128 0.000000 0.000000 0.000000 0.000000 0.000000 0.000000 5.765577 12.439705 4.442592 33.581404 53.190575 11.655583 -101.591064 46.099697 -50.212421 0.000000 0.000000 0.000000 0.000000 0.000000 0.000000 
-0.270661 70.057716 -2.491897 -1.322448 0.953106 3.116550 4.440212 -1.246562 -22.511492 -5.140838 0.880014 26.867948 2.831443 6.932098 3.031121 0.000000 0.000000 0.000000 -0.871818 1.865541 -19.847888 3.177824 -0.039048 24.719550 -1.018521 -3.995154 3.267322 0.000000 0.000000 0.000000 4.005347 -0.744651 9.371304 0.374668 -0.015667 -5.178838 -4.826418 3.027597 1.822983 4.787753 -3.490980 -2.059759 0.000000 0.000000 0.000000 -1.831600 -19.487181 6.874720 -28.968861 -63.370121 12.249151 93.938402 -39.633263 -39.062371 0.000000 0.000000 0.000000 0.000000 0.000000 0.000000 4.118114 13.186468 4.689514 27.107053 55.725813 9.376805 -100.134112 40.291880 -42.586129 0.000000 0.000000 0.000000 0.000000 0.000000 0.000000 
